<?xml version="1.0" standalone="no"?>
<!DOCTYPE svg PUBLIC "-//W3C//DTD SVG 20010904//EN"
 "http://www.w3.org/TR/2001/REC-SVG-20010904/DTD/svg10.dtd">
<svg version="1.0" xmlns="http://www.w3.org/2000/svg"
 width="259.000000pt" height="259.000000pt" viewBox="0 0 259.000000 259.000000"
 preserveAspectRatio="xMidYMid meet">
<metadata>
Created by potrace 1.11, written by Peter Selinger 2001-2013
</metadata>
<g transform="translate(0.000000,259.000000) scale(0.100000,-0.100000)"
fill="#000000" stroke="none">
<path d="M1285 2570 c-3 -5 -17 -10 -31 -10 -18 0 -23 -4 -18 -12 6 -10 5 -10
-7 -1 -9 8 -20 9 -29 3 -8 -6 -25 -10 -37 -10 -13 0 -23 -6 -23 -12 0 -8 -3
-9 -8 -3 -10 15 -35 18 -26 4 5 -9 2 -10 -9 -6 -10 4 -17 2 -17 -5 0 -7 -4 -7
-14 1 -10 8 -16 9 -21 1 -3 -6 -10 -8 -15 -5 -5 3 -12 0 -15 -6 -4 -5 -13 -8
-21 -5 -8 3 -14 0 -14 -7 0 -8 -4 -6 -10 3 -8 12 -10 12 -10 1 0 -11 -3 -11
-15 -1 -13 11 -14 10 -9 -4 7 -18 -15 -19 -28 -1 -5 6 -8 5 -8 -3 0 -7 -4 -10
-10 -7 -5 3 -10 1 -10 -4 0 -6 -5 -11 -11 -11 -5 0 -7 6 -3 13 6 9 4 9 -8 -1
-9 -7 -25 -12 -35 -10 -10 2 -17 -2 -15 -10 2 -10 -2 -10 -18 -2 -12 7 -20 7
-20 1 0 -5 -9 -8 -20 -6 -11 2 -20 0 -20 -5 0 -4 -11 -7 -25 -5 -14 1 -25 -1
-25 -5 0 -3 -16 -6 -36 -5 -20 0 -38 -4 -40 -10 -3 -6 -20 -10 -40 -9 -19 2
-32 -1 -29 -6 3 -5 -8 -8 -25 -8 -17 1 -36 -4 -42 -10 -8 -8 -17 -8 -30 -1
-12 6 -18 6 -18 -1 0 -5 -8 -10 -18 -10 -10 0 -24 -6 -31 -12 -11 -10 -13 -10
-7 0 8 14 -10 17 -19 2 -3 -5 -13 -6 -22 -3 -12 5 -14 3 -8 -7 5 -9 4 -11 -4
-6 -6 4 -18 2 -26 -4 -12 -10 -15 -10 -15 1 0 10 -3 10 -8 3 -4 -6 -17 -14
-30 -18 -12 -4 -20 -11 -17 -16 3 -4 -1 -8 -8 -7 -6 0 -23 -1 -37 -2 -20 -1
-22 -3 -10 -11 8 -5 10 -10 5 -10 -6 0 -20 6 -31 14 -22 16 -51 6 -40 -13 4
-6 2 -9 -7 -5 -10 4 -13 -3 -12 -26 1 -16 -2 -30 -7 -30 -5 0 -4 -8 1 -18 6
-11 6 -24 0 -35 -7 -12 -6 -17 3 -17 10 0 10 -2 0 -9 -17 -11 -17 -21 0 -32
10 -7 10 -9 0 -9 -8 0 -10 -5 -5 -12 4 -7 6 -23 4 -36 -1 -13 3 -30 11 -39 11
-14 11 -16 -2 -9 -8 5 4 -9 28 -32 23 -22 42 -45 42 -51 0 -6 4 -11 9 -11 6 0
39 -29 74 -64 36 -36 68 -62 71 -59 3 4 6 -1 6 -11 0 -9 7 -19 15 -22 8 -4 12
-10 9 -15 -3 -5 1 -9 8 -9 9 0 9 -3 -2 -10 -8 -5 -10 -10 -4 -10 6 0 10 -10 8
-22 -1 -13 -3 -29 -3 -37 -1 -7 -7 -11 -16 -8 -8 4 -17 2 -19 -2 -3 -5 -16 -8
-28 -7 -13 1 -32 -5 -42 -13 -17 -14 -18 -14 -11 -1 5 9 -1 7 -15 -5 -13 -11
-20 -14 -16 -7 4 6 2 12 -3 12 -6 0 -11 -4 -11 -8 0 -5 -17 -6 -37 -2 -22 3
-37 11 -36 18 4 16 0 15 -27 -8 -13 -11 -19 -20 -15 -20 5 0 4 -5 -2 -11 -6
-6 -9 -18 -6 -27 4 -8 2 -13 -3 -9 -5 3 -10 -3 -10 -13 0 -10 5 -16 10 -13 5
4 6 1 1 -7 -13 -21 -14 -104 -2 -119 9 -12 9 -13 0 -7 -10 5 -12 -1 -9 -26 3
-18 5 -35 7 -38 1 -3 1 -9 0 -13 -1 -4 6 -10 14 -13 8 -3 12 -10 9 -15 -3 -5
0 -9 5 -9 6 0 11 -7 11 -15 0 -8 5 -15 11 -15 5 0 8 -4 4 -9 -3 -5 -1 -12 5
-16 6 -4 8 -11 5 -16 -4 -5 -1 -9 4 -9 6 0 11 -7 11 -15 0 -8 5 -15 10 -15 6
0 10 -9 10 -20 0 -11 5 -20 11 -20 5 0 7 -4 4 -10 -3 -5 -1 -10 5 -10 6 0 8
-4 5 -10 -3 -5 -2 -10 4 -10 9 0 27 -40 22 -48 -1 -2 6 -10 16 -18 10 -7 15
-14 10 -14 -4 0 4 -18 18 -40 14 -22 25 -44 25 -50 0 -5 5 -10 11 -10 5 0 8
-4 4 -9 -3 -5 2 -16 10 -24 8 -9 15 -23 15 -31 0 -9 5 -16 10 -16 6 0 10 -7
10 -15 0 -8 4 -15 10 -15 5 0 7 -7 4 -15 -4 -8 1 -17 10 -21 9 -3 16 -13 16
-21 0 -8 4 -12 9 -9 5 4 7 -3 4 -14 -3 -11 0 -20 6 -20 6 0 10 -6 9 -12 -2 -7
2 -12 8 -11 8 1 10 -6 6 -19 -3 -14 -1 -19 6 -14 8 5 12 0 12 -13 0 -12 5 -21
10 -21 6 0 10 -9 10 -20 0 -11 5 -20 10 -20 6 0 10 -7 10 -15 0 -9 9 -25 20
-37 11 -12 20 -30 20 -39 0 -10 5 -21 10 -24 6 -4 8 -11 5 -16 -4 -5 1 -9 10
-9 9 0 13 -4 10 -10 -3 -5 0 -10 7 -10 11 0 10 -2 0 -9 -11 -7 -11 -9 1 -14 8
-3 22 -19 30 -36 10 -20 11 -29 4 -25 -7 3 -4 -1 7 -10 10 -8 15 -20 10 -27
-4 -7 -3 -10 2 -6 6 3 16 -3 23 -15 10 -16 10 -19 -1 -13 -7 3 -5 0 5 -8 9 -8
17 -24 17 -36 0 -12 4 -19 10 -16 6 3 10 -4 10 -17 0 -13 9 -31 20 -41 11 -9
20 -23 20 -31 0 -8 4 -16 9 -18 5 -2 11 -10 13 -18 4 -19 44 -60 58 -60 6 0 8
-5 3 -13 -4 -6 11 3 34 20 39 31 71 44 58 23 -3 -5 15 -8 45 -7 28 0 54 5 56
9 3 4 11 8 17 8 7 0 6 -4 -3 -10 -9 -6 -10 -10 -3 -10 6 0 15 5 19 11 4 8 9 7
15 -2 6 -10 9 -11 9 -1 0 7 13 12 30 12 17 0 30 5 30 13 0 8 4 7 10 -3 9 -13
10 -13 10 0 0 13 1 13 10 0 5 -8 10 -10 10 -5 0 6 14 12 32 13 17 2 38 8 47
15 12 9 13 9 7 0 -8 -14 6 -18 18 -6 4 4 19 8 34 8 15 0 33 4 40 8 6 5 12 5
12 0 0 -4 5 -1 10 7 8 12 10 12 10 1 0 -11 3 -11 15 -1 12 10 15 10 15 -1 0
-11 2 -11 8 -2 4 7 26 14 47 16 22 1 45 5 50 8 6 3 26 5 46 5 28 -1 35 2 31
14 -5 12 -3 13 9 4 8 -7 23 -8 34 -4 11 4 26 5 34 2 8 -3 12 -1 8 5 -3 5 0 10
8 10 8 0 12 -3 10 -7 -2 -3 5 -6 15 -6 10 0 16 4 14 8 -3 4 -2 8 3 9 4 0 26 2
48 5 22 2 50 5 63 5 12 1 22 6 22 11 0 6 8 4 17 -3 14 -12 16 -12 8 0 -6 11
-4 13 8 8 10 -4 17 -1 17 6 0 8 4 6 10 -3 8 -12 10 -12 10 -1 0 8 3 11 6 8 4
-3 15 -2 25 4 11 5 19 6 19 1 0 -5 7 -9 15 -9 8 0 11 5 8 10 -4 6 2 8 15 5 12
-4 24 -2 27 3 3 4 12 6 20 2 9 -3 15 1 15 8 0 11 3 11 10 -1 6 -10 10 -11 10
-2 0 6 5 12 11 12 5 0 7 -6 3 -12 -6 -10 -5 -10 8 -1 8 7 28 14 44 15 16 1 35
6 43 12 12 9 13 8 6 -4 -8 -13 -7 -13 9 -1 14 12 19 12 26 2 5 -8 9 -9 11 -3
2 6 18 13 34 16 17 2 32 5 35 6 3 1 10 3 15 4 35 5 51 18 51 41 0 15 -6 25
-15 25 -8 0 -11 3 -8 6 4 4 -3 15 -14 25 -13 11 -21 31 -22 53 0 19 -5 32 -10
29 -5 -3 -4 4 3 16 8 16 8 26 1 35 -7 9 -7 16 1 24 9 9 9 12 0 12 -7 0 -12 5
-12 11 0 5 5 7 11 3 7 -4 7 1 -1 16 -7 13 -8 20 -2 16 6 -4 12 5 14 20 2 18
10 28 23 30 35 5 63 64 30 64 -8 0 -15 6 -15 14 0 8 -9 18 -21 21 -11 4 -18 9
-15 12 3 3 -11 20 -30 38 -18 18 -34 38 -34 44 0 7 -4 10 -8 7 -5 -3 -15 6
-22 19 -7 13 -17 22 -22 19 -4 -3 -8 2 -8 11 0 9 -5 13 -11 9 -7 -4 -10 -1 -7
7 3 8 18 14 35 14 47 -1 59 27 28 63 -13 16 -22 32 -19 35 10 9 -19 76 -29 70
-6 -3 -7 -2 -4 4 3 5 0 21 -8 36 -8 15 -12 27 -9 27 2 0 -3 11 -12 25 -8 13
-12 30 -8 36 4 8 3 9 -4 5 -8 -5 -12 0 -12 13 0 12 -4 21 -10 21 -5 0 -10 11
-10 25 0 14 -4 25 -10 25 -5 0 -10 9 -10 21 0 11 -4 17 -10 14 -6 -3 -7 1 -4
9 3 9 10 13 15 10 5 -3 9 3 9 13 0 14 2 15 9 4 6 -10 10 -10 16 -1 4 6 13 9
21 6 8 -3 14 -1 14 4 0 5 6 7 14 4 8 -3 17 0 21 5 3 6 11 9 16 6 5 -4 9 -1 9
6 0 6 8 9 20 6 11 -3 23 -1 26 5 3 5 13 7 21 4 9 -4 22 -1 29 5 7 6 17 8 23 5
5 -4 15 -1 23 6 7 7 24 13 38 14 16 0 24 5 22 14 -3 11 0 11 12 0 12 -9 16
-10 16 0 0 7 6 10 14 7 8 -3 17 0 20 8 3 8 13 11 25 8 24 -6 27 6 9 26 -10 11
-10 13 0 7 6 -4 12 -3 12 3 0 5 -9 13 -20 16 -11 3 -20 11 -20 17 0 6 -3 8 -7
5 -3 -4 -15 0 -25 10 -10 9 -18 13 -18 9 0 -4 -6 -1 -14 6 -8 7 -11 18 -8 23
3 6 -3 3 -13 -5 -11 -9 -16 -10 -11 -2 4 7 2 12 -4 12 -6 0 -9 4 -5 9 3 5 1
12 -4 15 -5 4 -8 20 -6 36 2 17 0 28 -5 25 -4 -3 -7 3 -5 12 2 10 4 18 5 18 1
0 4 16 7 35 2 19 8 37 12 40 5 3 12 15 16 28 4 13 9 21 12 18 3 -3 21 1 39 9
19 8 38 15 42 17 11 5 9 32 -5 46 -6 6 -21 12 -33 12 -12 0 -19 4 -16 8 2 4
-4 14 -16 21 -16 10 -19 10 -12 -1 5 -8 1 -8 -12 2 -10 9 -31 22 -46 30 -16 7
-28 17 -28 22 0 4 -7 8 -16 8 -8 0 -22 7 -31 15 -8 8 -19 13 -24 10 -5 -4 -9
-1 -9 4 0 6 -9 11 -21 11 -11 0 -17 5 -14 10 3 6 -1 10 -9 10 -9 0 -16 5 -16
11 0 5 -4 7 -10 4 -5 -3 -10 -1 -10 5 0 6 -4 8 -10 5 -5 -3 -10 -1 -10 5 0 6
-4 8 -10 5 -5 -3 -10 -1 -10 4 0 6 -6 10 -12 8 -7 -1 -12 4 -11 10 2 7 0 12
-5 11 -17 -3 -62 15 -78 33 -9 10 -25 19 -36 19 -10 0 -18 5 -18 10 0 6 -10
10 -22 10 -17 0 -19 3 -10 9 10 6 5 10 -16 14 -16 3 -36 13 -45 21 -8 8 -26
18 -41 22 -14 3 -24 9 -22 13 3 3 -16 15 -40 25 -24 10 -44 22 -44 28 0 5 -4
6 -10 3 -5 -3 -10 -1 -10 5 0 6 -4 8 -10 5 -5 -3 -10 -1 -10 4 0 6 -7 11 -15
11 -9 0 -18 6 -21 14 -3 8 -11 13 -18 10 -6 -2 -21 4 -33 15 -11 11 -24 17
-27 14 -3 -4 -6 -2 -6 4 0 10 -36 26 -52 24 -5 -1 -8 3 -8 8 0 6 -27 22 -60
37 -33 15 -60 31 -60 37 0 6 -3 8 -6 4 -3 -3 -15 3 -27 13 -16 15 -24 17 -40
9 -14 -8 -18 -8 -13 0 4 6 3 11 -3 11 -5 0 -13 -4 -16 -10z"/>
</g>
</svg>
